<?xml version="1.0" encoding="UTF-8"?>
<svg version="1.1" xmlns="http://www.w3.org/2000/svg" width="200" height="200">
<path d="M0 0 C66 0 132 0 200 0 C200 66 200 132 200 200 C134 200 68 200 0 200 C0 134 0 68 0 0 Z " fill="#FAFDFD" transform="translate(0,0)"/>
<path d="M0 0 C2.43727414 2.43727414 2.90455254 4.34777713 3.9375 7.625 C5.2760123 11.78430302 6.67771201 15.88546842 8.24487305 19.96289062 C8.98924851 21.97099565 9.66319838 23.99040935 10.32421875 26.02734375 C12.14994517 31.53368977 14.19643967 36.9503354 16.25 42.375 C17.05628729 44.51811719 17.86227368 46.6613476 18.66796875 48.8046875 C19.76830267 51.72847028 20.86882491 54.65217827 21.97119141 57.57519531 C25.90127791 68.01670593 29.52642562 78.52838721 33.0065918 89.12841797 C35.60196516 96.96706574 38.48323129 104.6573615 41.5546875 112.3203125 C42.81217935 115.52181878 43.94940371 118.72581156 45 122 C47.19679442 118.43967802 49.04420491 115.16855651 50.2421875 111.15625 C52.64813918 103.72885168 55.99782752 96.65971659 59.15795898 89.5300293 C62.2791174 82.47408878 65.27576363 75.4128084 67.93359375 68.16796875 C71.20448173 59.25779766 74.96273516 50.57552333 78.75 41.875 C79.76084225 39.548466 80.77048357 37.22143639 81.77716064 34.89309692 C82.39568244 33.4628614 83.01657179 32.03364639 83.64031982 30.60568237 C85.29267526 26.7887662 86.7473661 22.9661617 88 19 C88.99 19 89.98 19 91 19 C91.94876214 21.39186313 92.88381207 23.78784066 93.8125 26.1875 C94.07353516 26.84169922 94.33457031 27.49589844 94.60351562 28.16992188 C98.96780757 39.53863299 100.53451435 50.54271221 100.4375 62.6875 C100.43137695 63.99807373 100.42525391 65.30864746 100.41894531 66.65893555 C100.20308216 80.11966358 98.44436701 92.99736645 92 105 C91.4225 106.16015625 90.845 107.3203125 90.25 108.515625 C86.27118466 116.40163701 81.98154286 123.43489199 76 130 C75.11570313 130.97710937 74.23140625 131.95421875 73.3203125 132.9609375 C57.06598707 150.34117498 33.52879304 162.41101189 9.6640625 163.375 C-3.9775637 163.74441017 -16.98827775 163.53270714 -30 159 C-31.00675781 158.73445312 -32.01351562 158.46890625 -33.05078125 158.1953125 C-56.37524515 151.70771327 -75.98500047 131.13745582 -87.7265625 110.640625 C-90.31166396 105.28010786 -92.15295518 99.64820951 -94 94 C-94.33515625 93.11828125 -94.6703125 92.2365625 -95.015625 91.328125 C-101.65188346 68.89125115 -100.0960922 41.72218928 -89 21 C-86.66239146 23.11412154 -85.43071929 24.88760736 -84.30859375 27.82421875 C-84.00896729 28.59282227 -83.70934082 29.36142578 -83.40063477 30.15332031 C-83.08280029 30.98959961 -82.76496582 31.82587891 -82.4375 32.6875 C-81.72839146 34.50982733 -81.0173714 36.33141172 -80.3046875 38.15234375 C-79.93053711 39.10995605 -79.55638672 40.06756836 -79.17089844 41.05419922 C-77.21107336 45.98481835 -75.12851003 50.86317628 -73.0625 55.75 C-69.18112103 64.97358819 -65.59284291 74.28033088 -62.12670898 83.66699219 C-59.67513714 90.28155865 -57.04283583 96.76482764 -54.2109375 103.2265625 C-51.52990569 109.3669902 -49.51475621 115.47489634 -48 122 C-47.34 122 -46.68 122 -46 122 C-45.82549316 121.38253906 -45.65098633 120.76507813 -45.47119141 120.12890625 C-43.7657561 114.25102561 -41.73336903 108.64260754 -39.375 103 C-36.16604425 95.1724774 -33.32809037 87.26515735 -30.625 79.25 C-27.38158801 69.66444634 -23.72532837 60.3582196 -19.73974609 51.05981445 C-16.13208892 42.54723092 -13.09562653 33.88701027 -10.13085938 25.13305664 C-2.42941922 2.42941922 -2.42941922 2.42941922 0 0 Z " fill="#06796E" transform="translate(99,36)"/>
<path d="M0 0 C6.32582736 0.52558803 11.83450733 1.65125244 17.8125 3.75 C18.58859619 4.01659424 19.36469238 4.28318848 20.16430664 4.55786133 C38.11580239 10.80549459 38.11580239 10.80549459 42 15 C43.2343736 15.95798125 44.48558482 16.89453458 45.75 17.8125 C46.44480469 18.33457031 47.13960937 18.85664063 47.85546875 19.39453125 C49.26356872 20.44868259 50.68266235 21.48833703 52.11328125 22.51171875 C52.75652344 23.00285156 53.39976562 23.49398438 54.0625 24 C54.65160156 24.433125 55.24070313 24.86625 55.84765625 25.3125 C57 27 57 27 56.70825195 29.73144531 C54.1487861 41.54327876 48.1017444 52.86099316 43.28515625 63.890625 C40.81774179 69.58754142 38.43918825 75.22848324 36.61450195 81.16674805 C35.69077313 83.92252067 34.37495848 86.44650568 33 89 C30.99086281 86.99086281 30.41196284 85.87660497 29.4140625 83.2890625 C29.12523193 82.5451123 28.83640137 81.80116211 28.53881836 81.03466797 C28.2372583 80.23947754 27.93569824 79.44428711 27.625 78.625 C27.31119385 77.80789551 26.9973877 76.99079102 26.67407227 76.14892578 C24.64404638 70.81991088 22.77142617 65.45839682 21.01953125 60.03125 C19.81277108 56.4433347 18.47429233 52.91094338 17.125 49.375 C14.69855107 43.00471503 12.51457822 36.58008677 10.40429688 30.09912109 C8.02321557 22.88282834 5.30968492 15.80265347 2.53955078 8.7277832 C2.20938965 7.87917725 1.87922852 7.03057129 1.5390625 6.15625 C1.24209473 5.40150391 0.94512695 4.64675781 0.63916016 3.86914062 C0 2 0 2 0 0 Z " fill="#07796E" transform="translate(113,1)"/>
<path d="M0 0 C-1.89314669 5.85596322 -3.96912495 11.59759374 -6.25 17.3125 C-8.80386824 23.78374817 -11.18025846 30.29476375 -13.4375 36.875 C-16.05278995 44.47309007 -18.90855635 51.9406469 -21.93139648 59.38525391 C-25.77696983 68.86381934 -29.39009577 78.42969119 -33 88 C-33.66 88 -34.32 88 -35 88 C-35.95908159 85.54195645 -36.91738942 83.08361678 -37.875 80.625 C-38.18163574 79.83786621 -38.48827148 79.05073242 -38.80419922 78.23974609 C-40.72130953 73.31070744 -42.62460239 68.37660928 -44.515625 63.4375 C-44.94762207 62.31005371 -45.37961914 61.18260742 -45.82470703 60.02099609 C-46.67091178 57.81094953 -47.51571272 55.60036478 -48.35888672 53.38916016 C-48.75865723 52.34550293 -49.15842773 51.3018457 -49.5703125 50.2265625 C-50.1586084 48.68790527 -50.1586084 48.68790527 -50.75878906 47.11816406 C-52.43368191 42.91050642 -54.28847145 38.78607107 -56.17529297 34.66943359 C-57.1167233 31.62218692 -56.97118908 30.01049231 -56 27 C-49.74959063 19.53591891 -37.75966963 9.92182787 -28 9 C-28 8.34 -28 7.68 -28 7 C-24.93889304 6.01644151 -21.8758844 5.03893981 -18.8125 4.0625 C-17.94818359 3.78470703 -17.08386719 3.50691406 -16.19335938 3.22070312 C-15.35224609 2.95322266 -14.51113281 2.68574219 -13.64453125 2.41015625 C-12.87471924 2.16402588 -12.10490723 1.91789551 -11.31176758 1.66430664 C-7.41381741 0.54419656 -4.07767409 0 0 0 Z " fill="#07796D" transform="translate(86,1)"/>
<path d="M0 0 C0.66 0 1.32 0 2 0 C1.86722656 0.72445312 1.73445312 1.44890625 1.59765625 2.1953125 C1.42105469 3.16210938 1.24445312 4.12890625 1.0625 5.125 C0.88847656 6.07632813 0.71445312 7.02765625 0.53515625 8.0078125 C0.35855469 8.99523437 0.18195313 9.98265625 0 11 C-0.25885986 12.39653809 -0.25885986 12.39653809 -0.52294922 13.82128906 C-1.31164089 19.0765427 -1.18448928 24.32011828 -1.1875 29.625 C-1.19974609 30.73746094 -1.21199219 31.84992188 -1.22460938 32.99609375 C-1.2398082 41.69995414 -0.62463557 50.21160044 2.1875 58.5 C3.05883705 61.18103708 2.99902683 62.40253023 2 65 C-4.52522116 55.21216826 -3.44205421 41.26653497 -3.33618164 29.96386719 C-3.31217366 27.21260198 -3.31569626 24.46228372 -3.32226562 21.7109375 C-3.31670042 19.95832754 -3.3095979 18.20572162 -3.30078125 16.453125 C-3.30169266 15.63241516 -3.30260406 14.81170532 -3.30354309 13.96612549 C-3.23118551 8.23118551 -3.23118551 8.23118551 -1 6 C-0.60235737 4.01178687 -0.26224651 2.01055661 0 0 Z " fill="#D8F9F8" transform="translate(3,69)"/>
<path d="M0 0 C0 0.66 0 1.32 0 2 C-2.73106511 2.91035504 -4.29893239 3.12215713 -7.10424805 3.11352539 C-8.3351844 3.11341209 -8.3351844 3.11341209 -9.59098816 3.11329651 C-10.9129998 3.10555458 -10.9129998 3.10555458 -12.26171875 3.09765625 C-13.16751175 3.0962413 -14.07330475 3.09482635 -15.00654602 3.09336853 C-17.90023091 3.08777001 -20.79383849 3.07521781 -23.6875 3.0625 C-25.64908742 3.05748481 -27.61067606 3.05292193 -29.57226562 3.04882812 C-34.38154021 3.03780107 -39.190757 3.02053747 -44 3 C-44.33 2.34 -44.66 1.68 -45 1 C-43.39560059 1.00785522 -43.39560059 1.00785522 -41.75878906 1.01586914 C-37.7854903 1.03398715 -33.81219519 1.0454569 -29.83886719 1.05493164 C-28.12011094 1.0599563 -26.40135895 1.0667771 -24.68261719 1.07543945 C-22.21027574 1.0875868 -19.73799088 1.09324703 -17.265625 1.09765625 C-16.11540863 1.10539818 -16.11540863 1.10539818 -14.94195557 1.11329651 C-9.82429816 1.11383304 -5.09341077 -0.14148363 0 0 Z " fill="#D1F6F6" transform="translate(125,197)"/>
<path d="M0 0 C0.33 0 0.66 0 1 0 C1.04967599 4.30499734 1.08584945 8.60983993 1.10986328 12.91503906 C1.11988105 14.37763376 1.13349912 15.84020863 1.15087891 17.30273438 C1.17531439 19.41281039 1.18652537 21.52262012 1.1953125 23.6328125 C1.20578613 24.90012207 1.21625977 26.16743164 1.22705078 27.47314453 C1.00065167 30.98987733 0.27223601 33.72916487 -1 37 C-1.66 37 -2.32 37 -3 37 C-2.08864266 29.44875346 -2.08864266 29.44875346 -1.5 26.46875 C-0.76513433 21.37061941 -0.63069532 16.26842942 -0.4375 11.125 C-0.39431641 10.05507812 -0.35113281 8.98515625 -0.30664062 7.8828125 C-0.20107183 5.25532246 -0.09896209 2.62774578 0 0 Z " fill="#A9E1DE" transform="translate(199,91)"/>
<path d="M0 0 C0.33 1.32 0.66 2.64 1 4 C0.34 4 -0.32 4 -1 4 C-1.26167969 4.58523437 -1.52335938 5.17046875 -1.79296875 5.7734375 C-4.30214718 10.40201906 -8.23073025 14.13418715 -12.9375 16.4375 C-13.618125 16.623125 -14.29875 16.80875 -15 17 C-11.34958384 12.63730751 -7.61135582 8.52626192 -3.515625 4.578125 C-1.78603688 2.87001498 -1.78603688 2.87001498 0 0 Z " fill="#DAF3F2" transform="translate(179,160)"/>
<path d="M0 0 C2.35953094 2.35953094 2.49141413 3.77895617 3 7 C2.34 7 1.68 7 1 7 C0.34 8.32 -0.32 9.64 -1 11 C-1.33 10.67 -1.66 10.34 -2 10 C-2.66 10.66 -3.32 11.32 -4 12 C-3.45660208 7.43545749 -2.20536179 4.0271824 0 0 Z " fill="#2E847A" transform="translate(99,36)"/>
<path d="M0 0 C0.33 0 0.66 0 1 0 C1.18175781 1.19496094 1.18175781 1.19496094 1.3671875 2.4140625 C2.40090057 9.04544216 2.40090057 9.04544216 4.1875 15.5 C5.05883705 18.18103708 4.99902683 19.40253023 4 22 C-0.20934535 15.68598198 -0.27967756 7.41145544 0 0 Z " fill="#C2E9E6" transform="translate(1,112)"/>
<path d="M0 0 C1.4216868 4.26506039 -0.34613318 7.20037743 -1.9375 11.1875 C-2.22818359 11.93708984 -2.51886719 12.68667969 -2.81835938 13.45898438 C-3.53725036 15.30924477 -4.26754653 17.15506648 -5 19 C-6.07174763 15.34811918 -5.76411467 12.73567172 -5 9 C-4.34 9 -3.68 9 -3 9 C-2.87625 8.443125 -2.7525 7.88625 -2.625 7.3125 C-1.94023145 4.77885636 -1.00866237 2.42078968 0 0 Z " fill="#217D71" transform="translate(82,7)"/>
<path d="M0 0 C1.48828125 1.05078125 1.48828125 1.05078125 3 3 C3.29296875 6.35546875 3.29296875 6.35546875 3.1875 10.1875 C3.16042969 11.45980469 3.13335937 12.73210937 3.10546875 14.04296875 C3.07066406 15.01878906 3.03585938 15.99460937 3 17 C2.67 17 2.34 17 2 17 C-0.29612756 5.47835991 -0.29612756 5.47835991 0 0 Z " fill="#DEF8F7" transform="translate(197,74)"/>
<path d="M0 0 C4.62 0 9.24 0 14 0 C10.61885051 1.69057475 8.3700175 2.45815467 4.75 3.125 C3.41195312 3.37636719 3.41195312 3.37636719 2.046875 3.6328125 C1.37140625 3.75398437 0.6959375 3.87515625 0 4 C0 2.68 0 1.36 0 0 Z " fill="#DCF5F4" transform="translate(72,0)"/>
<path d="M0 0 C1.98 0 3.96 0 6 0 C4.68 0.99 3.36 1.98 2 3 C2.99 3 3.98 3 5 3 C4.67 5.31 4.34 7.62 4 10 C1.04816899 7.04816899 0.91336012 4.04488053 0 0 Z " fill="#30877C" transform="translate(113,1)"/>
<path d="M0 0 C1 2 1 2 0.22265625 4.3828125 C-0.16019531 5.28773437 -0.54304688 6.19265625 -0.9375 7.125 C-1.31777344 8.03507812 -1.69804688 8.94515625 -2.08984375 9.8828125 C-2.39019531 10.58148438 -2.69054688 11.28015625 -3 12 C-4.05078125 10.12890625 -4.05078125 10.12890625 -5 8 C-4.1875 5.9375 -4.1875 5.9375 -3 4 C-2.67 3.01 -2.34 2.02 -2 1 C-1.34 0.67 -0.68 0.34 0 0 Z " fill="#288278" transform="translate(65,54)"/>
<path d="M0 0 C1.20409259 3.99930753 0.58887092 6.10726626 -1 10 C-1.9563874 11.69207001 -2.94410931 13.36816893 -4 15 C-5 13 -5 13 -4.00390625 9.9609375 C-3.52824219 8.77757812 -3.05257812 7.59421875 -2.5625 6.375 C-2.08941406 5.18648437 -1.61632812 3.99796875 -1.12890625 2.7734375 C-0.75636719 1.85820313 -0.38382812 0.94296875 0 0 Z " fill="#D3F1EF" transform="translate(85,3)"/>
<path d="M0 0 C1.33256282 3.64120668 0.65840377 5.66876554 -0.8125 9.1875 C-1.16957031 10.06792969 -1.52664062 10.94835937 -1.89453125 11.85546875 C-3 14 -3 14 -5 15 C-1.92482916 4.44191344 -1.92482916 4.44191344 0 0 Z " fill="#D2F1EF" transform="translate(63,61)"/>
<path d="M0 0 C2 3 2 3 1.625 6.1875 C1.41875 7.115625 1.2125 8.04375 1 9 C-0.32 9.33 -1.64 9.66 -3 10 C-2.39009109 6.44219804 -1.4216319 3.3171411 0 0 Z " fill="#2D867C" transform="translate(179,75)"/>
<path d="M0 0 C0.99 0.33 1.98 0.66 3 1 C1.25 6.75 1.25 6.75 -1 9 C-1.625 5.625 -1.625 5.625 -2 2 C-1.34 1.34 -0.68 0.68 0 0 Z " fill="#1F8075" transform="translate(146,81)"/>
<path d="M0 0 C0 3 0 3 -2 6 C-2.99 6 -3.98 6 -5 6 C-5.33 6.66 -5.66 7.32 -6 8 C-6.99 7.67 -7.98 7.34 -9 7 C-6.03 4.69 -3.06 2.38 0 0 Z " fill="#2C8378" transform="translate(41,19)"/>
<path d="M0 0 C1.95825873 -0.02694851 3.91662226 -0.04637218 5.875 -0.0625 C6.96554688 -0.07410156 8.05609375 -0.08570313 9.1796875 -0.09765625 C12 0 12 0 14 1 C14 1.66 14 2.32 14 3 C7.07 2.505 7.07 2.505 0 2 C0 1.34 0 0.68 0 0 Z " fill="#D1F1EF" transform="translate(112,0)"/>
<path d="M0 0 C0.33 0 0.66 0 1 0 C1.93402724 5.41735797 2.20808081 8.80451575 0 14 C-0.66 14 -1.32 14 -2 14 C-1.43393721 9.30976546 -0.81462495 4.65499974 0 0 Z " fill="#CBEBE9" transform="translate(198,114)"/>
<path d="M0 0 C0.66 0.66 1.32 1.32 2 2 C1.60495559 4.9628331 0.40182371 7.38326241 -1 10 C-1.99 10 -2.98 10 -4 10 C-4 9.34 -4 8.68 -4 8 C-3.34 8 -2.68 8 -2 8 C-1.34 5.36 -0.68 2.72 0 0 Z " fill="#43978C" transform="translate(55,150)"/>
<path d="M0 0 C1.2077558 3.62326739 0.54311128 4.64146369 -1 8 C-2.32 7.34 -3.64 6.68 -5 6 C-4.67 4.68 -4.34 3.36 -4 2 C-3.67 2.99 -3.34 3.98 -3 5 C-2.01 3.35 -1.02 1.7 0 0 Z " fill="#267F75" transform="translate(147,153)"/>
<path d="M0 0 C0.66 0 1.32 0 2 0 C2.28875 0.969375 2.5775 1.93875 2.875 2.9375 C3.64214682 6.10664203 3.64214682 6.10664203 6 7 C5.34 8.32 4.68 9.64 4 11 C3.33125616 9.35500958 2.66505926 7.70898352 2 6.0625 C1.443125 4.68771484 1.443125 4.68771484 0.875 3.28515625 C0 1 0 1 0 0 Z " fill="#D1F5F3" transform="translate(140,148)"/>
<path d="M0 0 C2.95183101 2.95183101 3.08663988 5.95511947 4 10 C2.68 9.67 1.36 9.34 0 9 C0 6.03 0 3.06 0 0 Z " fill="#3B8F85" transform="translate(123,102)"/>
<path d="M0 0 C1 2 1 2 0.25 5.5625 C-0.1625 6.696875 -0.575 7.83125 -1 9 C-1.99 9.33 -2.98 9.66 -4 10 C-3.52449439 8.51965236 -3.04448784 7.04074979 -2.5625 5.5625 C-2.29566406 4.73878906 -2.02882812 3.91507813 -1.75390625 3.06640625 C-1 1 -1 1 0 0 Z " fill="#ADD8D4" transform="translate(190,141)"/>
<path d="M0 0 C0.66 0.33 1.32 0.66 2 1 C0.875 2.9375 0.875 2.9375 -1 5 C-4.1875 5.75 -4.1875 5.75 -7 6 C-4.74259377 3.66475218 -2.7194239 1.81294927 0 0 Z " fill="#398D83" transform="translate(49,13)"/>
<path d="M0 0 C1.98 0 3.96 0 6 0 C4.3545622 1.68762851 2.68711423 3.3540349 1 5 C0.67 5 0.34 5 0 5 C0 3.35 0 1.7 0 0 Z " fill="#217D72" transform="translate(155,178)"/>
<path d="M0 0 C0.33 0 0.66 0 1 0 C1 2.31 1 4.62 1 7 C-0.98 7.99 -0.98 7.99 -3 9 C-2.01 6.03 -1.02 3.06 0 0 Z " fill="#47958F" transform="translate(152,139)"/>
<path d="M0 0 C2.50298434 2.93828597 3.46930939 5.17902761 4 9 C3.01 9 2.02 9 1 9 C0.67 6.03 0.34 3.06 0 0 Z " fill="#398E84" transform="translate(22,85)"/>
<path d="M0 0 C0.99 0.99 1.98 1.98 3 3 C2.67 3.66 2.34 4.32 2 5 C-0.0625 5.625 -0.0625 5.625 -2 6 C-1.49396008 3.83125748 -1.00016187 2.00032373 0 0 Z " fill="#33877D" transform="translate(10,57)"/>
<path d="M0 0 C0.66 0 1.32 0 2 0 C1.39009109 3.55780196 0.4216319 6.6828589 -1 10 C-2.46726798 6.18510326 -1.43336419 3.70988378 0 0 Z " fill="#1E786D" transform="translate(157,56)"/>
<path d="M0 0 C0.66 0.99 1.32 1.98 2 3 C1.125 6.1875 1.125 6.1875 0 9 C-0.66 8.34 -1.32 7.68 -2 7 C-1.60467975 4.54901444 -0.78698574 2.36095721 0 0 Z " fill="#E0F5F5" transform="translate(94,41)"/>
</svg>
